{
    "accessors" : [
        {
            "bufferView" : 0,
            "componentType" : 5126,
            "count" : 121,
            "max" : [
                4.0
            ],
            "min" : [
                0.0
            ],
            "type" : "SCALAR"
        },
        {
            "bufferView" : 1,
            "componentType" : 5126,
            "count" : 121,
            "max" : [
                -825.93408203125,
                996.9840698242188,
                -605.603515625
            ],
            "min" : [
                -825.93408203125,
                996.9840698242188,
                -605.603515625
            ],
            "type" : "VEC3"
        },
        {
            "bufferView" : 2,
            "componentType" : 5126,
            "count" : 121,
            "max" : [
                4.0
            ],
            "min" : [
                0.0
            ],
            "type" : "SCALAR"
        },
        {
            "bufferView" : 3,
            "componentType" : 5126,
            "count" : 121,
            "max" : [
                -0.15287113189697266,
                -0.07237622886896133,
                0.42174527049064636,
                0.8907991051673889
            ],
            "min" : [
                -0.15287113189697266,
                -0.07237622886896133,
                0.42174527049064636,
                0.8907991051673889
            ],
            "type" : "VEC4"
        },
        {
            "bufferView" : 4,
            "componentType" : 5126,
            "count" : 121,
            "max" : [
                4.0
            ],
            "min" : [
                0.0
            ],
            "type" : "SCALAR"
        },
        {
            "bufferView" : 5,
            "componentType" : 5126,
            "count" : 121,
            "max" : [
                0.9999999403953552,
                1.0,
                1.0
            ],
            "min" : [
                0.9999999403953552,
                1.0,
                1.0
            ],
            "type" : "VEC3"
        },
        {
            "bufferView" : 6,
            "componentType" : 5126,
            "count" : 121,
            "max" : [
                4.0
            ],
            "min" : [
                0.0
            ],
            "type" : "SCALAR"
        },
        {
            "bufferView" : 7,
            "componentType" : 5126,
            "count" : 121,
            "max" : [
                6.0,
                2.119999885559082,
                6.0
            ],
            "min" : [
                -6.0,
                0.3499999940395355,
                -6.0
            ],
            "type" : "VEC3"
        },
        {
            "bufferView" : 8,
            "componentType" : 5126,
            "count" : 121,
            "max" : [
                4.0
            ],
            "min" : [
                0.0
            ],
            "type" : "SCALAR"
        },
        {
            "bufferView" : 9,
            "componentType" : 5126,
            "count" : 121,
            "max" : [
                0.7071068286895752,
                0.7071067094802856,
                0.7070159316062927,
                0.7071067094802856
            ],
            "min" : [
                -0.002891088370233774,
                -0.7070159912109375,
                -0.7071068286895752,
                -0.0028911952394992113
            ],
            "type" : "VEC4"
        },
        {
            "bufferView" : 10,
            "componentType" : 5126,
            "count" : 121,
            "max" : [
                4.0
            ],
            "min" : [
                0.0
            ],
            "type" : "SCALAR"
        },
        {
            "bufferView" : 11,
            "componentType" : 5126,
            "count" : 121,
            "max" : [
                0.010000000707805157,
                0.010000000707805157,
                0.009999999776482582
            ],
            "min" : [
                0.009999998845160007,
                0.009999998845160007,
                0.009999999776482582
            ],
            "type" : "VEC3"
        }
    ],
    "animations" : [
        {
            "channels" : [
                {
                    "sampler" : 0,
                    "target" : {
                        "node" : 3,
                        "path" : "translation"
                    }
                },
                {
                    "sampler" : 1,
                    "target" : {
                        "node" : 3,
                        "path" : "rotation"
                    }
                },
                {
                    "sampler" : 2,
                    "target" : {
                        "node" : 3,
                        "path" : "scale"
                    }
                }
            ],
            "name" : "\u30cc\u30eb|C4D Animation Take|Layer0",
            "samplers" : [
                {
                    "input" : 6,
                    "interpolation" : "LINEAR",
                    "output" : 7
                },
                {
                    "input" : 8,
                    "interpolation" : "LINEAR",
                    "output" : 9
                },
                {
                    "input" : 10,
                    "interpolation" : "LINEAR",
                    "output" : 11
                }
            ]
        },
        {
            "channels" : [
                {
                    "sampler" : 0,
                    "target" : {
                        "node" : 2,
                        "path" : "translation"
                    }
                },
                {
                    "sampler" : 1,
                    "target" : {
                        "node" : 2,
                        "path" : "rotation"
                    }
                },
                {
                    "sampler" : 2,
                    "target" : {
                        "node" : 2,
                        "path" : "scale"
                    }
                }
            ],
            "name" : "\u30ab\u30e1\u30e9|C4D Animation Take|Layer0",
            "samplers" : [
                {
                    "input" : 0,
                    "interpolation" : "LINEAR",
                    "output" : 1
                },
                {
                    "input" : 2,
                    "interpolation" : "LINEAR",
                    "output" : 3
                },
                {
                    "input" : 4,
                    "interpolation" : "LINEAR",
                    "output" : 5
                }
            ]
        }
    ],
    "asset" : {
        "generator" : "Khronos Blender glTF 2.0 exporter",
        "version" : "2.0"
    },
    "bufferViews" : [
        {
            "buffer" : 0,
            "byteLength" : 484,
            "byteOffset" : 0
        },
        {
            "buffer" : 0,
            "byteLength" : 1452,
            "byteOffset" : 484
        },
        {
            "buffer" : 0,
            "byteLength" : 484,
            "byteOffset" : 1936
        },
        {
            "buffer" : 0,
            "byteLength" : 1936,
            "byteOffset" : 2420
        },
        {
            "buffer" : 0,
            "byteLength" : 484,
            "byteOffset" : 4356
        },
        {
            "buffer" : 0,
            "byteLength" : 1452,
            "byteOffset" : 4840
        },
        {
            "buffer" : 0,
            "byteLength" : 484,
            "byteOffset" : 6292
        },
        {
            "buffer" : 0,
            "byteLength" : 1452,
            "byteOffset" : 6776
        },
        {
            "buffer" : 0,
            "byteLength" : 484,
            "byteOffset" : 8228
        },
        {
            "buffer" : 0,
            "byteLength" : 1936,
            "byteOffset" : 8712
        },
        {
            "buffer" : 0,
            "byteLength" : 484,
            "byteOffset" : 10648
        },
        {
            "buffer" : 0,
            "byteLength" : 1452,
            "byteOffset" : 11132
        }
    ],
    "buffers" : [
        {
            "byteLength" : 12584,
            "uri" : "camera.bin"
        }
    ],
    "nodes" : [
        {
            "name" : "Camera",
            "rotation" : [
                0.483536034822464,
                0.33687159419059753,
                -0.20870360732078552,
                0.7804827094078064
            ],
            "translation" : [
                7.481131553649902,
                5.34366512298584,
                6.5076398849487305
            ]
        },
        {
            "name" : "Lamp",
            "rotation" : [
                0.16907575726509094,
                0.7558802962303162,
                -0.27217137813568115,
                0.570947527885437
            ],
            "scale" : [
                1.0,
                1.0,
                0.9999999403953552
            ],
            "translation" : [
                4.076245307922363,
                5.903861999511719,
                -1.0054539442062378
            ]
        },
        {
            "name" : "\u30ab\u30e1\u30e9",
            "rotation" : [
                -0.15287114679813385,
                -0.07237623631954193,
                0.421745240688324,
                0.8907991051673889
            ],
            "scale" : [
                0.9999998807907104,
                1.0,
                0.9999999403953552
            ],
            "translation" : [
                -825.9339599609375,
                996.9839477539062,
                -605.603515625
            ]
        },
        {
            "children" : [
                2
            ],
            "name" : "\u30cc\u30eb",
            "rotation" : [
                5.338507946817117e-08,
                0.7071068286895752,
                -0.7071068286895752,
                -5.338507946817117e-08
            ],
            "scale" : [
                0.009999999776482582,
                0.009999999776482582,
                0.009999999776482582
            ],
            "translation" : [
                6.0,
                0.8100000023841858,
                -0.0
            ]
        }
    ],
    "scene" : 0,
    "scenes" : [
        {
            "name" : "Scene",
            "nodes" : [
                3,
                1,
                0
            ]
        }
    ]
}
